<?xml version="1.0" standalone="no"?>
<!DOCTYPE svg PUBLIC "-//W3C//DTD SVG 20010904//EN"
 "http://www.w3.org/TR/2001/REC-SVG-20010904/DTD/svg10.dtd">
<svg version="1.0" xmlns="http://www.w3.org/2000/svg"
 width="768.000000pt" height="768.000000pt" viewBox="0 0 768.000000 768.000000"
 preserveAspectRatio="xMidYMid meet">

<g transform="translate(0.000000,768.000000) scale(0.100000,-0.100000)"
fill="#000000" stroke="none">
<path d="M843 7489 c-3 -203 -17 -473 -33 -604 -26 -214 -44 -391 -51 -500
-11 -170 -24 -259 -43 -287 -9 -13 -19 -47 -22 -74 -4 -27 -13 -59 -21 -72
-10 -16 -15 -70 -19 -190 -3 -92 -12 -229 -20 -305 -14 -124 -14 -143 0 -185
17 -51 28 -354 13 -368 -4 -5 -16 -3 -25 3 -15 9 -17 28 -13 164 3 133 1 156
-13 168 -14 12 -307 29 -539 31 l-58 0 3 -949 c2 -522 7 -953 11 -957 4 -5 12
-2 17 6 7 10 10 11 10 3 0 -26 19 -12 30 21 8 26 8 51 1 92 -15 77 -14 94 4
94 8 0 15 -3 15 -7 0 -5 16 -26 35 -47 18 -22 75 -110 126 -195 100 -170 115
-191 136 -191 11 0 14 29 12 153 0 83 4 163 9 177 9 24 10 24 17 -12 4 -21 5
-53 1 -70 -7 -43 -7 -281 0 -335 l6 -42 -44 -11 c-23 -7 -48 -14 -54 -15 -6
-2 -15 -20 -18 -40 -9 -44 7 -71 73 -131 86 -78 138 -292 69 -282 -14 2 -24
12 -28 28 -8 32 -44 35 -48 3 -2 -12 -10 -27 -19 -35 -14 -11 -15 -2 -8 89 6
81 4 106 -7 122 -14 19 -16 17 -36 -42 -12 -34 -24 -80 -28 -102 -19 -119 -82
-307 -114 -339 -19 -20 -20 -19 -35 17 -8 20 -15 44 -15 54 0 15 -2 16 -10 3
-5 -8 -10 -49 -10 -90 0 -50 -6 -82 -15 -94 -8 -11 -15 -39 -15 -63 0 -65 -20
-135 -46 -164 -29 -30 -35 -119 -9 -119 20 0 20 -58 0 -84 -13 -17 -15 -84
-15 -423 l0 -403 23 0 c13 0 35 -10 48 -21 l24 -22 -47 6 -48 7 0 -45 c0 -43
1 -45 30 -45 17 0 54 -12 82 -27 29 -15 69 -28 91 -29 21 -1 51 -7 66 -14 27
-11 28 -15 27 -70 -1 -45 -6 -64 -22 -82 -19 -20 -22 -39 -27 -158 -7 -152
-20 -209 -77 -334 -11 -25 -20 -47 -20 -50 0 -4 83 -6 185 -6 102 0 185 2 185
5 0 3 -20 55 -45 115 -25 60 -45 119 -45 132 0 13 11 69 25 126 33 136 33 186
-1 239 -30 45 -108 91 -171 99 -61 9 -96 25 -126 57 -15 16 -27 39 -27 50 0
20 1 20 13 2 17 -22 21 -16 41 60 8 33 31 107 51 165 19 58 35 111 35 117 0
24 68 160 83 166 17 6 18 10 82 242 65 239 89 309 135 403 84 172 219 362 339
474 75 71 87 78 247 145 93 39 203 85 244 101 41 17 113 46 160 66 47 19 126
43 175 52 50 10 111 28 137 41 26 12 53 23 61 23 7 0 42 12 78 26 64 25 205
61 290 73 25 4 71 20 102 35 40 21 64 27 85 23 26 -5 32 -1 60 41 17 26 53 74
81 107 28 33 70 84 93 114 24 30 71 87 105 127 l63 73 -39 88 c-49 113 -77
201 -92 286 -9 56 -16 71 -38 84 -58 36 -71 55 -71 100 0 24 5 52 12 62 18 29
-60 254 -116 341 -69 104 -73 115 -79 247 -8 138 -2 153 57 153 30 0 37 -6 71
-62 21 -35 47 -73 57 -85 13 -13 25 -51 33 -105 13 -79 14 -67 12 213 -1 212
1 300 10 310 19 24 33 128 39 289 5 169 18 273 34 278 5 2 10 8 10 13 0 6 -4
7 -10 4 -5 -3 -10 0 -10 8 0 22 28 29 33 9 4 -16 5 -16 6 0 0 9 -3 20 -9 23
-17 10 -11 54 10 75 l20 20 7 -31 6 -31 14 43 c8 23 21 49 29 56 8 8 14 23 14
32 0 10 7 24 16 31 13 11 16 10 21 -9 4 -15 11 -20 22 -16 9 3 26 -2 37 -10
26 -20 34 -19 34 4 0 28 89 57 122 40 13 -6 25 -13 27 -16 3 -2 -13 -21 -34
-43 -45 -46 -41 -61 8 -32 23 13 39 17 48 11 8 -5 26 -6 42 -3 16 3 27 1 27
-5 0 -7 24 -11 61 -11 53 0 62 -3 66 -20 5 -18 8 -19 22 -7 12 10 38 12 104 8
49 -3 95 -2 103 2 9 5 21 4 29 -3 8 -6 19 -9 25 -5 23 14 257 5 289 -11 17 -9
44 -14 61 -12 20 2 34 -3 43 -16 7 -10 25 -19 40 -19 15 -1 27 -5 27 -9 0 -8
57 -28 84 -29 58 -1 102 -147 56 -187 -42 -35 -63 -82 -61 -136 1 -39 6 -54
21 -65 11 -7 20 -19 20 -26 0 -7 6 -18 14 -24 8 -7 17 -27 20 -46 4 -19 12
-35 18 -35 5 0 8 -6 5 -13 -3 -7 1 -21 9 -32 20 -27 17 -35 -10 -35 -13 0 -26
-4 -28 -9 -4 -11 -69 -24 -115 -24 -18 0 -33 -4 -33 -8 0 -4 -10 -7 -22 -7
-34 0 -69 -10 -87 -25 -17 -15 -52 -31 -63 -29 -3 1 -12 -5 -18 -13 -7 -8 -20
-15 -30 -15 -10 0 -23 -6 -29 -14 -6 -7 -47 -21 -91 -30 -83 -18 -150 -15
-169 8 -30 36 -281 131 -281 106 0 -5 -17 0 -37 10 -33 15 -125 32 -173 31 -8
0 -65 0 -126 0 -153 -1 -219 -31 -231 -106 -6 -38 -6 -39 11 -22 10 9 28 17
42 17 13 0 24 4 24 8 0 4 15 9 33 10 17 1 49 5 69 8 28 4 47 0 70 -14 18 -11
44 -23 58 -27 14 -4 40 -14 57 -22 27 -12 31 -18 23 -33 -5 -10 -24 -20 -42
-23 -83 -14 -198 -45 -213 -57 -9 -8 -25 -31 -36 -51 -34 -67 -21 -100 32 -81
16 6 34 5 54 -4 17 -7 39 -13 49 -14 19 0 19 1 -1 19 -14 14 -19 27 -15 50 5
39 16 39 32 1 39 -93 146 -70 166 36 6 33 9 36 35 30 39 -7 107 -54 115 -78 8
-26 -17 -52 -69 -69 l-42 -14 30 -5 c17 -3 30 -11 30 -19 0 -15 -78 -61 -137
-80 -47 -16 -56 -30 -32 -48 23 -18 127 -12 194 12 91 31 164 130 145 198 -6
20 -5 21 8 5 30 -38 53 -7 42 55 -5 28 -3 35 12 41 10 3 29 13 43 22 39 23 84
11 144 -40 45 -39 54 -53 64 -98 7 -29 12 -73 11 -98 -3 -215 19 -438 42 -424
5 3 9 -14 10 -38 0 -36 2 -39 9 -20 13 30 18 28 12 -5 -6 -38 -17 -50 -51 -56
-19 -4 -32 -16 -40 -36 -7 -16 -21 -37 -32 -47 -10 -9 -19 -23 -19 -31 0 -7
-4 -13 -10 -13 -5 0 -10 -6 -10 -14 0 -8 -10 -16 -22 -18 -20 -3 -20 -4 -6
-19 12 -11 29 -15 61 -12 47 4 50 3 102 -61 18 -22 39 -36 52 -36 44 0 23 -16
-39 -29 -35 -8 -88 -13 -118 -12 -30 2 -80 4 -112 5 -31 0 -54 5 -51 10 3 4
-3 6 -13 3 -28 -8 -74 -17 -115 -22 -19 -2 -52 -11 -72 -20 -20 -8 -45 -15
-56 -15 -23 0 -45 34 -37 55 3 8 -6 23 -19 34 -14 10 -25 23 -25 28 0 5 21 40
46 78 25 38 54 90 66 115 11 25 22 39 25 33 12 -32 23 -7 23 52 0 35 5 76 12
90 6 14 8 28 5 31 -11 12 -54 -5 -103 -41 -27 -20 -64 -45 -81 -56 -18 -12
-33 -25 -33 -30 0 -26 -67 -143 -87 -152 -24 -10 -31 -41 -13 -52 6 -4 8 -30
4 -68 -8 -83 5 -142 31 -142 13 0 21 8 23 23 2 12 9 34 16 47 12 22 13 19 10
-34 -4 -74 10 -91 60 -73 50 18 60 15 91 -27 27 -35 31 -37 43 -22 7 9 11 10
7 4 -3 -7 -1 -13 4 -13 6 0 11 6 11 14 0 10 20 1 60 -26 58 -38 76 -56 45 -44
-22 8 -18 -7 5 -22 16 -10 43 -10 128 -2 181 19 212 19 212 1 0 -9 3 -27 6
-41 4 -19 3 -22 -5 -10 -8 12 -15 10 -38 -16 -30 -34 -66 -46 -155 -49 -68 -3
-78 -9 -78 -42 0 -35 26 -52 78 -53 37 0 42 -3 42 -22 0 -37 -15 -54 -33 -39
-10 8 -17 9 -22 1 -9 -15 38 -30 95 -30 30 0 54 -6 64 -15 23 -23 31 -18 31
18 0 25 4 32 19 30 11 -1 29 3 42 7 12 5 25 6 28 2 4 -3 28 -5 54 -3 26 2 58
4 72 5 14 0 24 6 23 14 -4 17 8 15 23 -5 16 -22 18 -53 4 -53 -6 0 -10 -6 -9
-12 1 -7 1 -32 0 -56 -1 -37 -7 -49 -45 -85 -91 -88 -115 -107 -134 -107 -11
0 -25 -6 -31 -14 -6 -7 -24 -16 -40 -19 -16 -3 -44 -20 -62 -37 -18 -16 -39
-30 -46 -30 -22 0 -64 -23 -60 -34 6 -19 -41 -48 -60 -38 -10 6 -26 6 -39 2
-12 -5 -25 -6 -28 -3 -3 4 -6 2 -6 -4 0 -6 7 -16 15 -23 8 -7 15 -19 15 -27 0
-18 -44 -10 -67 12 -16 17 -43 20 -43 6 0 -25 -133 18 -175 56 -11 10 -45 40
-77 66 -31 26 -83 88 -117 138 -64 95 -82 106 -31 19 16 -27 52 -92 78 -143
39 -73 146 -245 242 -387 5 -8 27 -44 48 -80 22 -36 72 -121 113 -189 133
-222 179 -303 179 -318 0 -12 59 -125 95 -184 26 -42 95 -180 95 -190 0 -6 14
-30 30 -53 22 -31 30 -52 29 -77 -2 -23 5 -45 20 -66 25 -33 46 -34 54 -2 3
11 14 19 25 19 12 0 24 5 27 10 3 6 16 10 28 10 13 0 32 7 44 15 19 14 21 13
27 -17 6 -29 9 -168 4 -168 -2 0 -26 9 -54 19 -28 11 -75 23 -103 27 -35 4
-56 13 -66 26 -16 23 -60 48 -85 48 -17 0 -70 46 -70 60 0 5 -18 11 -41 15
-22 4 -38 9 -35 12 3 3 1 10 -4 17 -74 90 -110 154 -110 194 0 26 5 31 30 37
21 5 30 13 30 26 0 31 29 9 54 -41 22 -44 46 -63 46 -37 0 13 -16 52 -68 169
-9 21 -23 38 -31 38 -14 0 -133 -62 -200 -104 -169 -107 -321 -177 -419 -194
-34 -6 -71 -17 -82 -25 -19 -14 -19 -14 1 -35 31 -34 89 -32 132 4 33 27 46
31 140 37 l68 5 46 -62 c26 -33 50 -63 53 -66 25 -23 80 -119 75 -132 -4 -9
-1 -26 5 -37 6 -12 15 -60 21 -106 5 -46 21 -115 35 -152 14 -38 37 -97 50
-133 39 -104 58 -180 60 -250 3 -102 20 -227 43 -323 11 -48 21 -99 21 -113 0
-14 7 -50 16 -80 l15 -54 60 0 c46 0 59 3 59 15 0 8 5 15 10 15 6 0 10 10 10
23 1 12 10 47 21 77 31 84 42 167 28 223 -12 52 -6 97 14 97 8 0 12 11 11 30
l-2 30 30 -18 c36 -20 53 -56 73 -155 17 -78 69 -265 86 -310 l11 -27 104 0
c57 0 104 3 104 6 0 19 -37 128 -61 182 -16 34 -29 65 -29 68 0 3 -13 35 -30
70 -103 220 -94 192 -81 259 12 58 18 78 66 235 17 56 25 110 29 210 4 95 11
152 25 190 10 30 35 105 56 165 20 61 39 112 41 114 2 2 8 -7 12 -20 8 -20 11
-13 21 42 6 36 11 80 11 97 0 27 -4 32 -24 32 -13 0 -29 -7 -36 -15 -7 -8 -19
-15 -26 -15 -8 0 -14 -4 -14 -10 0 -5 -6 -10 -12 -10 -14 0 -30 -8 -120 -58
-42 -24 -64 -30 -86 -26 -24 5 -30 2 -35 -15 -4 -18 -13 -21 -61 -21 -53 0
-56 1 -56 25 0 30 57 183 76 206 8 8 14 29 14 45 0 16 34 98 79 189 44 88 96
198 116 245 20 47 54 121 76 166 21 44 39 86 39 92 0 7 17 31 38 53 l37 42 0
116 c0 112 -1 118 -35 186 -19 39 -36 75 -39 80 -2 6 4 3 14 -5 10 -8 34 -49
52 -90 28 -60 38 -101 53 -213 15 -113 22 -143 40 -162 20 -21 101 -55 132
-55 24 0 141 -60 175 -90 18 -17 43 -30 53 -30 17 0 20 7 20 43 1 42 18 77 39
77 6 0 11 14 11 31 0 16 4 28 9 25 4 -3 6 -57 3 -120 -4 -109 -4 -115 18 -132
54 -45 168 -170 213 -235 61 -89 90 -152 127 -287 17 -58 36 -115 44 -127 30
-45 46 -133 56 -299 11 -180 20 -237 41 -262 8 -10 9 -18 2 -25 -9 -9 -4 -69
11 -155 3 -12 9 -58 16 -101 19 -134 50 -274 80 -363 27 -83 80 -302 80 -334
0 -13 13 -16 85 -16 74 0 86 2 95 20 14 26 45 26 63 0 12 -17 24 -19 135 -17
67 1 122 5 122 9 0 4 7 8 15 8 8 0 15 5 15 10 0 19 42 10 47 -10 5 -18 14 -20
135 -19 96 1 127 4 119 12 -15 15 -14 52 2 65 32 27 80 -20 63 -63 -5 -13 16
-15 154 -15 l160 0 0 91 c0 75 -3 94 -17 104 -12 9 -18 28 -18 62 -1 26 -5 65
-9 85 -13 62 13 59 83 -9 58 -57 60 -61 54 -99 -3 -21 -14 -46 -23 -54 -22
-18 -40 -80 -40 -137 l0 -43 390 0 390 0 0 256 0 257 -40 -6 c-22 -3 -40 -1
-40 4 0 5 10 9 23 10 l22 0 -22 11 c-50 24 -14 36 40 13 14 -6 17 -2 17 24 0
27 -4 31 -26 31 -14 0 -35 5 -47 12 -31 16 -113 33 -297 59 -41 6 -85 17 -97
25 -12 7 -37 15 -55 16 -31 3 -33 1 -36 -30 -3 -32 -4 -32 -40 -26 -20 3 -42
12 -48 20 -6 8 -16 14 -21 14 -22 0 -50 -37 -56 -73 -3 -22 -18 -54 -32 -72
-14 -19 -25 -42 -26 -52 0 -10 -5 -2 -11 17 -5 19 -22 45 -36 57 -20 15 -27
30 -27 55 0 25 -4 33 -17 33 -10 0 -18 5 -18 10 0 5 8 10 17 10 10 0 19 8 21
18 2 11 -3 17 -15 17 -10 0 -28 3 -40 6 -17 5 -23 2 -23 -9 0 -8 6 -17 13 -20
9 -3 9 -8 -2 -21 -23 -27 -30 -6 -21 64 4 36 8 59 9 53 1 -15 41 -18 41 -4 0
5 9 7 20 4 17 -4 20 0 20 26 0 29 -2 30 -32 24 -18 -3 -37 -6 -43 -7 -6 -1
-11 52 -13 135 l-3 135 -32 10 c-19 5 -33 17 -35 28 -4 17 0 18 32 13 33 -5
36 -4 37 19 2 28 2 31 13 62 9 26 41 29 101 7 22 -8 57 -14 78 -15 30 0 39 -5
47 -24 10 -26 32 -46 28 -24 -2 10 10 12 47 10 71 -4 75 -7 75 -51 0 -22 5
-43 10 -46 6 -4 10 12 10 39 0 49 4 52 54 36 72 -22 336 -80 369 -80 19 0 40
-7 47 -15 7 -8 23 -15 36 -15 23 0 24 2 24 85 0 68 -3 85 -15 85 -9 0 -12 -6
-8 -16 7 -19 -15 -36 -38 -28 -22 6 -32 -53 -11 -65 21 -12 -14 -23 -36 -12
-9 5 -37 17 -62 26 -51 19 -60 29 -60 68 0 28 -13 36 -26 16 -3 -6 -1 -14 5
-18 14 -9 3 -43 -13 -38 -6 2 -14 17 -17 33 l-6 29 -11 -27 c-11 -28 -35 -35
-60 -20 -13 9 -6 42 9 42 15 0 10 47 -6 60 -8 7 -15 23 -15 36 0 16 -6 24 -17
25 -13 0 -14 2 -4 6 14 6 115 -13 141 -26 8 -5 15 -15 15 -24 0 -25 13 -30 20
-8 5 16 15 21 38 21 53 -1 151 -28 164 -46 10 -13 12 91 12 510 l1 526 -73 1
c-39 0 -103 1 -142 2 l-70 2 -11 100 c-12 112 -31 166 -66 189 -14 9 -57 17
-108 20 -47 3 -107 9 -135 15 -27 5 -100 10 -162 10 -61 1 -114 5 -117 10 -4
5 -18 5 -35 -2 -33 -12 -61 -4 -61 18 0 22 27 30 55 15 22 -12 26 -10 50 18
26 31 26 31 60 15 42 -20 56 -11 28 20 -27 29 -43 61 -43 85 0 17 10 15 89
-26 l90 -45 173 -8 c257 -11 352 -23 461 -55 12 -4 17 0 17 13 0 13 -12 23
-35 32 -46 16 -46 35 0 28 l35 -6 0 1264 0 1264 -47 3 c-41 3 -48 6 -51 25 -2
14 4 26 18 33 18 10 21 19 19 58 -1 26 1 68 5 94 5 26 5 56 0 65 -12 27 -13
183 -3 316 21 265 31 362 39 372 11 13 13 111 4 187 -4 39 -2 68 6 89 11 25
11 32 0 39 -10 6 -11 31 -1 128 6 69 11 308 11 561 l0 441 -69 0 -68 0 -12
-207 c-7 -115 -16 -242 -21 -283 -4 -41 -7 -210 -5 -375 2 -165 -1 -331 -6
-370 -5 -38 -11 -113 -13 -165 -17 -370 -19 -391 -35 -403 -16 -12 -17 -16
-22 -208 l-3 -96 -194 -6 c-322 -11 -408 -9 -426 9 -21 20 -21 21 14 39 35 18
39 44 10 70 -11 10 -20 31 -20 46 0 22 -6 30 -24 35 -36 9 -66 -4 -77 -33 -15
-41 -10 -73 16 -97 26 -25 33 -64 13 -71 -22 -7 -318 -15 -809 -21 -461 -7
-477 -6 -487 12 -11 22 -4 84 10 84 6 0 7 11 4 24 -4 16 -1 26 9 30 13 4 13
10 0 46 -8 22 -10 40 -5 40 6 0 10 7 10 16 0 18 -28 108 -41 137 -7 13 -5 17
11 17 11 0 20 5 20 10 0 6 9 23 20 39 17 22 20 39 18 97 -3 65 -4 69 -28 72
-14 2 -30 10 -36 18 -14 18 -7 90 12 119 14 21 8 69 -7 59 -11 -7 -11 14 2
101 6 39 10 165 9 280 -2 212 15 526 29 535 4 3 11 19 16 35 7 29 7 30 18 8 5
-13 13 -23 17 -23 13 0 19 26 10 41 -5 8 -5 16 1 20 6 3 13 25 16 48 4 26 13
47 24 54 11 7 19 22 19 34 0 14 6 23 16 23 13 0 14 -22 9 -187 -3 -104 -7
-255 -10 -338 -2 -82 -7 -188 -10 -235 -4 -74 -19 -424 -30 -720 -2 -53 -9
-116 -14 -140 -16 -67 -15 -70 24 -70 41 0 41 -1 50 160 4 63 11 162 16 220
10 117 11 129 10 250 -2 135 9 512 14 520 3 5 8 64 11 132 3 67 10 127 15 132
5 6 9 -1 9 -17 0 -38 15 -34 16 4 1 27 12 42 36 51 8 3 13 42 23 163 6 63 22
174 32 213 l5 22 -465 0 -465 0 -7 -227 c-4 -126 -10 -307 -14 -403 l-6 -175
-25 -3 c-29 -5 -99 15 -120 33 -8 7 -38 22 -66 34 -28 11 -71 29 -95 40 -50
23 -114 46 -179 66 -25 7 -58 20 -75 28 -18 9 -56 15 -97 15 -39 0 -74 5 -82
11 -8 7 -23 11 -34 9 -10 -2 -35 9 -55 25 -36 27 -36 27 -78 10 -34 -13 -48
-14 -72 -5 -22 8 -34 8 -43 1 -7 -6 -18 -8 -23 -5 -18 11 -242 -36 -276 -58
-11 -7 -45 -15 -75 -18 -53 -6 -74 -13 -186 -65 -28 -12 -56 -23 -62 -23 -15
0 -61 -29 -92 -58 -43 -40 -131 -93 -148 -90 -15 3 -17 19 -17 128 0 105 19
420 40 668 l6 62 -271 0 -270 0 -1 -77 c-1 -43 0 -89 2 -103 9 -67 0 -1266
-11 -1445 -7 -110 -14 -238 -14 -284 -2 -68 -5 -86 -20 -97 -16 -11 -18 -26
-17 -103 1 -54 -2 -92 -8 -96 -20 -12 -100 6 -104 24 -4 14 -5 14 -6 -1 0 -10
-6 -18 -12 -18 -6 0 -8 7 -5 16 3 9 6 20 6 25 0 4 7 6 15 3 12 -5 15 5 15 55
0 51 -3 61 -17 61 -14 0 -15 2 -5 9 8 5 -46 8 -130 8 -258 0 -422 8 -446 22
l-24 13 8 302 c6 282 6 303 -11 320 -19 19 -18 30 24 191 5 22 15 175 21 340
6 164 13 302 15 305 2 3 5 45 6 93 l3 87 35 6 c20 4 72 20 116 36 101 38 201
63 340 88 112 20 181 38 156 39 -8 1 -11 4 -8 8 4 3 -2 12 -13 20 -17 12 -19
22 -13 83 l5 70 -377 0 -378 0 9 -327 c8 -287 10 -520 6 -770 -1 -54 -5 -74
-17 -80 -13 -8 -14 -15 -5 -37 11 -30 6 -46 -15 -46 -7 0 -16 -6 -19 -12 -5
-10 -7 -10 -12 0 -8 16 -24 15 -24 -2 0 -7 -7 -20 -16 -27 -14 -11 -15 -28
-10 -109 8 -131 7 -182 -6 -197 -24 -29 -32 -15 -56 102 -19 93 -22 520 -9
1143 l7 362 -49 0 -49 0 -4 -46 c-2 -25 0 -98 5 -162 9 -124 3 -554 -14 -1047
-6 -165 -11 -341 -11 -392 -1 -92 -7 -121 -26 -109 -20 12 -24 93 -23 566 1
410 -1 489 -13 505 -14 20 -15 19 -24 -5 -10 -26 -11 -53 -17 -470 -2 -140 -6
-300 -8 -355 -3 -55 -5 -118 -6 -140 -1 -34 -6 -44 -32 -59 -18 -11 -35 -14
-40 -9 -5 5 -12 86 -15 181 -5 130 -4 182 6 212 11 32 11 45 0 71 -10 24 -14
148 -14 560 -1 291 3 529 8 529 4 0 5 11 2 25 -4 14 -1 34 6 45 15 23 33 27
24 5 -6 -17 24 -95 36 -95 5 0 8 22 8 49 0 26 3 69 6 95 l7 46 -69 0 -69 0 -1
-138 c-2 -161 -23 -351 -37 -327 -18 32 -28 144 -27 303 0 132 -2 162 -14 162
-22 0 -26 -49 -19 -213 3 -84 2 -179 -2 -212 -7 -56 -8 -58 -17 -30 -5 17 -11
126 -15 243 l-6 212 -46 0 -46 0 -2 -191z m4764 149 c-3 -8 -6 -5 -6 6 -1 11
2 17 5 13 3 -3 4 -12 1 -19z m-4457 -4 c0 -9 -5 -14 -12 -12 -18 6 -21 28 -4
28 9 0 16 -7 16 -16z m4480 -54 c0 -22 -4 -40 -10 -40 -11 0 -14 63 -3 73 11
12 13 8 13 -33z m117 -292 c-3 -8 -6 -5 -6 6 -1 11 2 17 5 13 3 -3 4 -12 1
-19z m998 -1608 c-6 -9 -9 -9 -16 1 -10 17 0 34 13 21 6 -6 7 -16 3 -22z
m-4482 -127 c3 -5 -1 -14 -9 -21 -8 -7 -14 -8 -14 -2 0 5 -8 10 -17 10 -15 0
-16 2 -3 10 18 12 37 13 43 3z m-3 -74 c0 -14 -7 -19 -25 -19 -29 0 -34 24 -8
39 22 12 33 5 33 -20z m-803 -81 c-3 -8 -6 -5 -6 6 -1 11 2 17 5 13 3 -3 4
-12 1 -19z m-22 -132 c-3 -6 -8 -19 -11 -28 -4 -10 -12 -18 -20 -18 -14 0 -16
38 -1 57 10 14 40 5 32 -11z m4672 14 c13 0 13 -3 3 -15 -9 -11 -32 -15 -84
-15 -49 0 -66 3 -56 10 8 5 11 10 5 11 -5 1 6 5 25 9 19 5 48 6 64 4 16 -2 35
-4 43 -4z m-4966 -22 c1 -22 1 -22 10 2 5 16 7 -21 3 -95 -2 -66 -5 -148 -6
-182 0 -35 -2 -63 -4 -63 -1 0 -14 4 -28 10 -25 9 -26 12 -20 67 4 32 12 63
19 68 7 6 16 29 19 50 5 31 4 36 -4 20 -8 -16 -9 -14 -4 10 8 33 7 42 -2 98
-4 24 -2 37 5 37 6 0 11 -10 12 -22z m5274 11 c11 -17 -3 -23 -55 -23 -27 0
-52 3 -56 6 -15 15 11 28 56 28 27 0 52 -5 55 -11z m-5396 -205 c16 -12 21
-26 21 -58 0 -24 -6 -48 -12 -54 -17 -14 -95 -19 -107 -7 -6 6 -7 45 -1 105 5
52 10 109 11 125 1 21 3 24 6 10 9 -37 23 -40 24 -4 0 28 4 21 19 -34 11 -44
26 -74 39 -83z m384 106 c-7 -27 -23 -36 -34 -19 -14 22 -11 37 9 42 25 5 31
0 25 -23z m3364 -252 c-3 -8 -6 -5 -6 6 -1 11 2 17 5 13 3 -3 4 -12 1 -19z
m-1690 -94 c-9 -9 -28 6 -21 18 4 6 10 6 17 -1 6 -6 8 -13 4 -17z m33 16 c0
-5 -4 -10 -10 -10 -5 0 -10 5 -10 10 0 6 5 10 10 10 6 0 10 -4 10 -10z m40
-11 c0 -14 -17 -10 -23 5 -4 10 -1 13 9 9 7 -3 14 -9 14 -14z m1638 -52 c2
-15 -1 -27 -7 -27 -6 0 -11 3 -11 8 0 4 -3 18 -7 31 -4 18 -2 23 8 19 8 -2 15
-17 17 -31z m-550 4 c3 -8 -1 -12 -9 -9 -7 2 -15 10 -17 17 -3 8 1 12 9 9 7
-2 15 -10 17 -17z m165 -48 c4 -7 19 -13 32 -13 13 0 27 -4 30 -10 3 -5 1 -10
-5 -10 -6 0 -8 -4 -5 -10 3 -6 -4 -10 -17 -10 -18 0 -20 2 -8 10 8 5 11 12 7
16 -9 9 -37 -15 -37 -31 0 -15 -44 -25 -105 -25 -70 0 -80 8 -42 34 23 15 35
34 44 66 6 25 12 46 12 48 2 5 86 -53 94 -65z m-284 -20 c14 -27 9 -29 -13 -7
-9 8 -13 20 -10 25 7 12 7 11 23 -18z m114 -84 c38 -12 71 -26 73 -33 3 -8 15
-11 30 -8 13 2 24 0 24 -6 0 -16 -88 -26 -125 -15 -18 6 -46 8 -61 5 -18 -3
-25 -1 -20 6 4 7 2 10 -6 7 -15 -6 -120 46 -125 61 -5 16 137 5 210 -17z
m-158 -105 c22 -15 51 -37 65 -49 14 -12 41 -31 60 -41 19 -10 43 -25 53 -33
9 -8 20 -11 24 -7 11 11 11 51 -1 59 -7 6 -5 7 6 4 9 -3 67 -9 128 -13 l111
-7 48 -55 c46 -52 49 -59 55 -128 4 -45 3 -81 -4 -93 -15 -28 -62 -59 -100
-66 -17 -3 -39 -12 -47 -20 -8 -8 -23 -15 -32 -15 -10 0 -24 -7 -31 -15 -15
-18 -61 -20 -78 -3 -7 7 -12 9 -12 5 0 -16 -49 37 -54 58 -3 13 -25 43 -49 67
-24 24 -46 48 -48 53 -5 13 -127 95 -140 95 -6 0 -7 14 -4 34 4 19 2 59 -5 90
-9 44 -9 60 0 71 6 8 9 19 5 25 -11 17 9 11 50 -16z m-3390 -619 c-14 -254
-33 -472 -55 -645 -6 -41 -14 -151 -20 -245 -9 -166 -25 -347 -35 -392 -7 -30
-30 -29 -50 1 -13 19 -14 32 -7 63 6 21 13 76 17 123 3 47 15 130 26 184 15
74 21 153 24 305 2 113 11 296 19 406 9 110 16 249 16 308 0 84 4 115 17 138
17 28 41 41 55 29 5 -3 1 -127 -7 -275z m2906 -200 c32 -2 68 -9 80 -16 15 -7
68 -13 134 -14 130 -2 155 -8 155 -38 -1 -53 -39 -66 -82 -29 -16 14 -18 13
-18 -7 0 -38 -113 -59 -140 -26 -9 10 -17 12 -24 6 -7 -6 -31 -13 -53 -17 -36
-5 -45 -3 -65 19 -17 18 -31 24 -49 20 -17 -3 -31 2 -43 16 -15 16 -22 18 -33
9 -17 -14 -42 15 -43 51 0 19 4 23 24 19 13 -3 35 1 47 8 13 7 31 11 39 7 8
-3 40 -7 71 -8z m435 -56 c3 -6 -1 -18 -10 -27 -15 -15 -18 -15 -26 -2 -5 8
-10 21 -10 28 0 15 36 16 46 1z m2438 -798 c3 -5 -1 -14 -9 -21 -13 -10 -15
-9 -15 9 0 21 14 28 24 12z m-702 -258 c26 -24 22 -36 -9 -28 -34 8 -47 20
-39 34 10 16 27 14 48 -6z m-5202 -317 c5 -71 7 -133 4 -137 -3 -5 1 -6 9 -3
13 5 17 -5 18 -50 0 -10 -4 -22 -8 -27 -12 -11 -64 1 -56 14 4 6 0 8 -10 4 -9
-3 -19 -2 -22 3 -3 5 -6 71 -7 147 -1 135 10 211 35 242 16 19 25 -29 37 -193z
m5270 132 c0 -5 -4 -8 -10 -8 -5 0 -10 10 -10 23 0 18 2 19 10 7 5 -8 10 -18
10 -22z m-5461 -24 c23 15 22 -26 -2 -77 -25 -49 -42 -72 -83 -106 -16 -14
-17 -13 -10 10 4 13 10 41 13 62 3 21 10 40 14 43 5 3 9 15 9 27 0 16 3 18 9
9 6 -10 10 -4 15 20 5 24 9 29 15 19 5 -7 14 -10 20 -7z m6249 -56 c3 -13 -3
-18 -20 -18 -31 0 -52 15 -43 29 11 18 59 9 63 -11z m-170 -25 c3 -17 -2 -23
-15 -23 -22 0 -43 18 -43 38 0 9 9 12 28 10 19 -2 28 -9 30 -25z m423 17 c20
-11 26 -45 8 -55 -14 -9 -49 24 -49 47 0 20 12 23 41 8z m-593 -28 c5 -33 -26
-41 -50 -13 -22 28 -15 43 20 39 19 -2 28 -10 30 -26z m717 18 c3 -5 2 -10 -4
-10 -5 0 -13 5 -16 10 -3 6 -2 10 4 10 5 0 13 -4 16 -10z m-895 -25 c16 -19 9
-49 -13 -53 -25 -5 -47 16 -47 44 0 19 5 24 24 24 13 0 29 -7 36 -15z m619 1
c13 -16 5 -46 -13 -46 -18 0 -36 21 -36 42 0 22 32 24 49 4z m-809 -11 c20
-24 4 -65 -25 -65 -33 0 -63 43 -45 65 16 19 54 19 70 0z m1216 -33 c5 -26 4
-31 -9 -27 -15 6 -29 53 -20 68 8 14 22 -6 29 -41z m-576 3 c0 -18 -5 -25 -19
-25 -24 0 -33 13 -25 34 10 27 44 20 44 -9z m-184 -34 c-7 -11 -46 -16 -46 -5
0 3 5 15 11 26 10 18 13 19 26 5 9 -8 12 -20 9 -26z m610 28 c10 -16 -18 -40
-35 -29 -12 7 -12 11 -2 24 16 19 27 20 37 5z m284 -11 c0 -13 -23 -5 -28 10
-2 7 2 10 12 6 9 -3 16 -11 16 -16z m-1057 -38 c6 -23 -17 -45 -38 -36 -18 6
-20 37 -4 53 15 15 36 6 42 -17z m601 -3 c-7 -19 -20 -22 -29 -7 -9 15 16 43
27 32 5 -5 6 -16 2 -25z m-985 -19 c12 -32 3 -48 -25 -48 -17 0 -25 7 -30 24
-3 14 -3 30 1 35 11 19 45 12 54 -11z m191 -2 c0 -29 -28 -42 -48 -22 -20 20
-8 46 23 46 20 0 25 -5 25 -24z m628 7 c-4 -23 -48 -31 -48 -10 0 9 6 18 13
20 25 11 38 7 35 -10z m590 -11 c3 -16 -2 -22 -16 -22 -21 0 -36 25 -26 41 10
17 39 5 42 -19z m-911 -19 c-3 -3 -11 -2 -17 2 -8 5 -7 11 2 22 12 15 13 14
16 -1 2 -10 1 -20 -1 -23z m753 -3 c0 -15 -7 -20 -25 -20 -30 0 -43 24 -25 45
16 19 50 2 50 -25z m-616 14 c4 -9 4 -19 2 -22 -10 -9 -36 8 -36 23 0 20 26
19 34 -1z m436 -19 c15 -18 6 -45 -13 -45 -8 0 -20 7 -27 15 -10 12 -10 18 0
30 16 19 24 19 40 0z m-660 -15 c0 -11 0 -23 1 -27 0 -5 -7 -9 -15 -11 -16 -3
-31 32 -21 48 11 18 35 11 35 -10z m-140 -17 c0 -23 -29 -53 -52 -53 -30 0
-34 30 -7 51 30 23 59 24 59 2z m628 5 c19 -19 14 -28 -12 -28 -29 0 -44 19
-25 31 18 12 23 11 37 -3z m-787 -35 c13 -36 -2 -50 -36 -35 -23 11 -33 40
-18 55 15 16 44 5 54 -20z m539 -5 c0 -6 -7 -5 -15 2 -8 7 -15 17 -15 22 0 6
7 5 15 -2 8 -7 15 -17 15 -22z m70 12 c0 -5 -4 -10 -10 -10 -5 0 -10 5 -10 10
0 6 5 10 10 10 6 0 10 -4 10 -10z m-796 -16 c21 -21 20 -41 -3 -54 -23 -12
-51 10 -51 39 0 34 28 42 54 15z m424 -16 c18 -18 15 -43 -8 -63 -29 -26 -70
-7 -70 33 0 16 3 32 7 35 11 11 58 8 71 -5z m275 -25 c8 -17 7 -27 -2 -36 -21
-21 -70 25 -58 56 8 22 46 10 60 -20z m962 6 c0 -8 -12 -15 -27 -17 -32 -4
-40 23 -10 31 25 7 37 2 37 -14z m95 -14 c16 -19 4 -35 -28 -36 -25 0 -26 -1
-5 -9 30 -12 40 -50 17 -67 -23 -17 -29 -16 -48 3 -18 17 -21 50 -6 59 6 3 10
14 10 24 0 36 38 53 60 26z m-917 -9 c18 -14 23 -46 7 -46 -16 0 -51 40 -45
50 8 13 16 12 38 -4z m-715 -8 c19 -19 14 -28 -12 -28 -27 0 -41 14 -31 30 8
14 28 13 43 -2z m1250 -15 c3 -19 -1 -23 -21 -23 -28 0 -52 23 -42 40 4 6 19
10 33 8 19 -2 28 -10 30 -25z m-782 -10 c37 -28 42 -58 13 -76 -26 -16 -49 -1
-49 32 0 16 -4 33 -10 36 -13 8 -13 35 1 35 6 0 26 -12 45 -27z m-645 6 c16
-8 18 -13 8 -25 -13 -16 -55 -19 -64 -4 -19 31 18 50 56 29z m1537 -21 c-2
-13 -10 -23 -18 -23 -8 0 -16 10 -18 23 -3 17 2 22 18 22 16 0 21 -5 18 -22z
m-1173 -4 c9 -9 15 -26 13 -37 -8 -54 -88 -43 -88 12 0 41 44 56 75 25z m675
-4 c0 -5 -4 -10 -9 -10 -6 0 -13 5 -16 10 -3 6 1 10 9 10 9 0 16 -4 16 -10z
m-488 -17 c21 -19 23 -44 6 -61 -19 -19 -45 -14 -62 10 -20 28 -20 33 0 52 20
20 33 20 56 -1z m292 -2 c14 -15 15 -24 6 -40 -19 -36 -60 -19 -60 24 0 39 26
47 54 16z m386 0 c0 -12 -28 -22 -34 -12 -3 5 -3 11 1 15 9 9 33 7 33 -3z
m-215 -47 c0 -12 -7 -19 -19 -19 -24 0 -41 27 -32 50 6 16 8 16 29 2 12 -8 22
-23 22 -33z m339 20 c17 -6 22 -39 8 -48 -5 -3 -19 2 -31 10 -17 13 -20 19
-10 30 13 16 12 16 33 8z m574 -6 c20 -20 14 -37 -15 -44 -27 -7 -53 14 -53
43 0 16 52 17 68 1z m-7181 -27 c23 -16 43 -28 46 -25 6 6 -8 -66 -18 -88 -10
-24 -33 -30 -63 -15 -17 9 -37 11 -52 6 -39 -11 -55 -10 -75 5 -18 13 -18 16
11 80 29 65 29 65 70 66 30 0 52 -8 81 -29z m6411 17 c18 -18 14 -38 -8 -38
-16 0 -40 26 -40 44 0 11 36 6 48 -6z m362 -33 c0 -21 -19 -28 -36 -15 -12 11
-12 14 3 25 20 15 33 11 33 -10z m-236 9 c16 -6 23 -34 8 -34 -10 0 -32 22
-32 32 0 10 3 10 24 2z m362 -18 c7 -28 -1 -46 -20 -46 -21 0 -38 27 -31 50 9
28 43 26 51 -4z m-891 -45 c-4 -14 -15 -21 -30 -21 -33 0 -47 47 -19 67 16 11
21 11 37 -6 13 -12 17 -26 12 -40z m-895 32 c0 -23 -17 -49 -26 -41 -9 10 4
58 16 58 6 0 10 -8 10 -17z m405 -8 c0 -10 -6 -20 -12 -22 -8 -3 -13 5 -13 22
0 17 5 25 13 23 6 -3 12 -13 12 -23z m180 -10 c0 -27 -3 -30 -30 -30 -21 0
-31 5 -33 18 -5 25 17 49 42 45 16 -2 21 -10 21 -33z m1328 4 c14 -22 2 -49
-22 -49 -26 0 -42 29 -29 53 11 21 36 19 51 -4z m-848 -24 c0 -25 -4 -30 -25
-30 -21 0 -26 5 -28 33 -3 31 -2 33 25 30 24 -3 28 -8 28 -33z m163 16 c20
-12 11 -56 -12 -56 -27 0 -43 29 -27 49 15 18 21 19 39 7z m813 -11 c10 -6 19
-21 19 -34 0 -30 -42 -41 -65 -16 -19 21 -19 25 1 44 18 19 20 19 45 6z m-643
-28 c4 -29 -26 -42 -44 -18 -17 24 -6 48 20 44 13 -2 22 -12 24 -26z m139 10
c6 -4 13 -16 15 -27 2 -16 -3 -20 -22 -20 -20 0 -26 6 -28 28 -3 27 10 35 35
19z m157 -34 c18 -30 -8 -44 -33 -19 -12 12 -21 26 -21 32 0 16 42 6 54 -13z
m-910 -4 c9 -8 16 -19 16 -23 0 -14 -25 -31 -46 -31 -31 0 -43 39 -18 57 23
17 29 16 48 -3z m-309 -4 c12 -20 -6 -50 -31 -50 -19 0 -24 5 -24 24 0 31 40
50 55 26z m189 -8 c15 -18 15 -20 -3 -36 -37 -33 -82 2 -51 39 17 20 33 19 54
-3z m306 -13 c17 -31 5 -51 -27 -47 -28 3 -40 25 -29 54 8 21 44 17 56 -7z
m845 10 c12 -19 -5 -23 -22 -6 -16 16 -16 17 -1 17 9 0 20 -5 23 -11z m112 -4
c3 -9 3 -18 0 -21 -10 -10 -47 7 -47 22 0 19 39 18 47 -1z m-781 -29 c7 -30
-1 -46 -25 -46 -26 0 -44 25 -36 50 9 30 53 27 61 -4z m164 -1 c19 -23 8 -50
-20 -50 -19 0 -26 6 -28 24 -5 35 26 53 48 26z m169 -23 c12 -23 -1 -45 -25
-40 -12 2 -20 13 -22 31 -3 22 1 27 17 27 11 0 25 -8 30 -18z m161 -23 c0 -13
-7 -19 -24 -19 -31 0 -43 30 -20 47 21 15 44 1 44 -28z m138 13 c2 -7 -3 -12
-12 -12 -9 0 -16 7 -16 16 0 17 22 14 28 -4z m-1789 -29 c14 -30 2 -49 -24
-40 -19 8 -29 32 -21 52 9 23 32 18 45 -12z m369 5 c-4 -27 -28 -36 -28 -10 0
20 8 32 22 32 5 0 8 -10 6 -22z m190 0 c16 -16 -3 -48 -29 -48 -22 0 -34 22
-25 45 6 18 37 20 54 3z m317 -13 c0 -22 -31 -33 -48 -16 -7 7 -6 15 3 26 17
21 45 15 45 -10z m175 -20 c0 -8 -9 -15 -20 -15 -20 0 -26 11 -13 23 12 13 33
7 33 -8z m167 -21 c-9 -9 -28 6 -21 18 4 6 10 6 17 -1 6 -6 8 -13 4 -17z
m-798 -23 c19 -12 6 -41 -18 -41 -23 0 -35 15 -27 35 6 17 24 19 45 6z m191
-19 c0 -5 -9 -17 -19 -26 -21 -19 -37 -7 -27 19 6 16 46 21 46 7z m470 -35
c36 -8 81 -21 100 -30 35 -16 35 -16 7 -17 -16 0 -26 -4 -22 -10 9 -14 -8 -12
-30 4 -21 15 -56 2 -50 -18 15 -49 15 -65 0 -60 -8 4 -15 1 -15 -5 0 -6 18
-11 40 -11 27 0 43 -5 46 -15 4 -8 12 -15 19 -15 11 0 24 -28 25 -52 0 -17
-32 -7 -37 10 -3 13 -24 25 -65 37 -56 17 -61 17 -70 1 -13 -24 -24 -20 -68
23 -38 37 -40 41 -34 83 4 23 12 52 17 63 6 11 10 24 9 29 -3 9 30 5 128 -17z
m-1010 -22 c0 -8 -4 -15 -9 -15 -5 0 -14 7 -21 15 -10 13 -9 15 9 15 12 0 21
-6 21 -15z m240 -15 c0 -20 -5 -30 -15 -30 -16 0 -19 17 -9 44 10 26 24 18 24
-14z m190 -5 c10 -13 10 -19 -5 -35 -21 -24 -38 -25 -54 -6 -9 11 -10 20 -1
35 13 25 42 27 60 6z m-584 -43 c-12 -11 -18 7 -10 30 l8 23 4 -23 c2 -13 1
-26 -2 -30z m1324 34 c0 -2 -7 -7 -16 -10 -8 -3 -12 -2 -9 4 6 10 25 14 25 6z
m99 -22 c2 -2 -12 -4 -32 -4 -20 0 -37 4 -37 10 0 8 58 3 69 -6z m749 5 l27
-1 -30 -9 c-33 -10 -55 -5 -55 12 0 6 7 8 16 5 9 -3 28 -6 42 -7z m-1404 -8
c3 -4 -1 -16 -8 -26 -16 -23 -46 -13 -46 15 0 15 7 20 24 20 14 0 27 -4 30 -9z
m-656 -14 c15 -17 -1 -40 -24 -35 -27 5 -32 48 -6 48 11 0 24 -6 30 -13z
m1389 -3 c-3 -3 -12 -4 -19 -1 -8 3 -5 6 6 6 11 1 17 -2 13 -5z m-1039 -26
c30 -30 0 -75 -43 -64 -19 5 -25 13 -25 35 0 15 3 31 7 34 11 11 48 8 61 -5z
m1001 -10 c16 -16 18 -25 10 -35 -6 -7 -8 -24 -5 -37 3 -14 1 -28 -5 -32 -17
-10 -33 12 -24 33 5 10 7 22 6 28 -2 5 -3 19 -4 30 0 11 -6 23 -12 27 -6 5 -6
8 2 8 7 0 21 -10 32 -22z m-564 2 c9 -15 -4 -50 -20 -50 -21 0 -27 17 -15 40
12 22 25 26 35 10z m-703 -54 c6 -31 -5 -49 -27 -44 -28 5 -41 33 -26 52 20
24 48 20 53 -8z m633 -6 c3 -11 3 -25 -1 -32 -5 -8 -2 -9 9 -5 25 10 38 -22
20 -50 -21 -31 -33 -29 -33 6 0 23 -5 30 -22 33 -18 2 -24 11 -26 36 -3 28 0
32 22 32 16 0 27 -7 31 -20z m-482 -24 c5 -14 -10 -36 -25 -36 -4 0 -8 11 -8
25 0 27 24 35 33 11z m371 -32 c9 -4 16 -18 16 -34 0 -42 -51 -56 -70 -20 -23
42 7 72 54 54z m286 -4 c0 -5 -4 -10 -9 -10 -6 0 -13 5 -16 10 -3 6 1 10 9 10
9 0 16 -4 16 -10z m-855 -10 c3 -5 1 -10 -4 -10 -6 0 -11 5 -11 10 0 6 2 10 4
10 3 0 8 -4 11 -10z m1033 -19 c4 -29 -9 -44 -31 -35 -20 7 -22 35 -5 52 17
17 32 10 36 -17z m-628 -11 c0 -5 -7 -10 -15 -10 -8 0 -15 5 -15 10 0 6 7 10
15 10 8 0 15 -4 15 -10z m515 -60 c10 -16 -16 -43 -28 -31 -11 11 -2 41 12 41
5 0 13 -5 16 -10z m-297 -28 c-2 -11 3 -27 11 -36 11 -13 12 -24 5 -43 -13
-38 -29 -34 -32 10 -2 20 -7 37 -13 37 -5 0 -9 11 -9 25 0 19 5 25 21 25 14 0
19 -5 17 -18z m184 -84 c-9 -9 -12 -7 -12 12 0 19 3 21 12 12 9 -9 9 -15 0
-24z m179 5 c14 -38 5 -57 -21 -43 -31 17 -26 59 8 69 1 1 7 -11 13 -26z
m-457 11 c35 -13 7 -69 -31 -62 -19 3 -28 30 -19 54 6 15 24 18 50 8z m-633
-17 c-1 -12 -15 -9 -19 4 -3 6 1 10 8 8 6 -3 11 -8 11 -12z m705 -44 c8 -29
-16 -59 -40 -50 -19 7 -22 57 -5 74 16 16 38 5 45 -24z m-574 -23 c3 -29 -1
-35 -18 -38 -21 -3 -54 21 -54 39 0 5 8 13 18 16 9 4 21 13 26 21 12 20 25 3
28 -38z m167 -10 c27 -23 22 -50 -9 -50 -11 0 -20 4 -20 8 0 5 -11 14 -25 20
-14 6 -25 18 -25 27 0 22 50 19 79 -5z m699 3 c12 -24 4 -43 -18 -43 -24 0
-33 15 -25 40 8 25 31 26 43 3z m-525 -7 c22 -17 22 -42 0 -50 -20 -8 -43 17
-43 46 0 21 18 23 43 4z m725 -44 c-4 -32 -29 -40 -52 -17 -20 20 -20 29 0 49
23 24 56 3 52 -32z m-1096 -17 c14 -30 -3 -55 -38 -55 -25 0 -42 36 -30 65 9
25 55 18 68 -10z m176 -38 c2 -12 -3 -17 -17 -17 -12 0 -21 6 -21 13 0 31 32
34 38 4z m191 -1 c5 -27 -26 -48 -50 -35 -19 10 -25 39 -12 53 14 14 58 1 62
-18z m416 -1 c0 -11 -7 -21 -16 -23 -18 -3 -33 23 -23 39 10 17 39 5 39 -16z
m200 9 c19 -20 16 -43 -8 -58 -15 -9 -22 -7 -37 12 -35 42 7 84 45 46z m-375
-14 c0 -5 -5 -10 -11 -10 -5 0 -7 5 -4 10 3 6 8 10 11 10 2 0 4 -4 4 -10z
m-120 -40 c0 -5 -4 -10 -10 -10 -5 0 -10 5 -10 10 0 6 5 10 10 10 6 0 10 -4
10 -10z m-435 -20 c11 -18 -6 -50 -26 -50 -28 0 -37 30 -14 46 22 17 32 17 40
4z m193 -2 c19 -19 14 -48 -10 -57 -46 -17 -74 22 -38 51 26 21 32 22 48 6z
m640 -20 c3 -14 -3 -18 -27 -18 -31 0 -47 13 -36 31 11 16 59 6 63 -13z m-484
-15 c8 -19 -8 -38 -23 -29 -16 10 -13 46 3 46 8 0 17 -8 20 -17z m236 -8 c0
-8 -4 -15 -10 -15 -5 0 -10 7 -10 15 0 8 5 15 10 15 6 0 10 -7 10 -15z m435 5
c3 -5 4 -14 1 -19 -9 -13 -46 -1 -46 15 0 16 36 19 45 4z m-1115 -62 c0 -26
-26 -23 -34 5 -11 43 -8 52 14 32 11 -10 20 -26 20 -37z m783 27 c8 -18 -11
-31 -25 -17 -11 11 -3 32 12 32 4 0 10 -7 13 -15z m-188 -11 c17 -17 16 -35
-5 -89 -10 -26 -35 -34 -43 -12 -2 6 0 25 4 41 5 16 4 36 -1 46 -17 32 17 42
45 14z m-421 0 c32 -12 13 -73 -21 -68 -7 1 -17 2 -22 3 -16 2 -23 41 -11 56
13 16 29 19 54 9z m203 -30 c12 -19 11 -24 -5 -45 -19 -22 -20 -22 -46 -6 -28
19 -34 45 -14 65 18 18 48 11 65 -14z m127 -17 c11 -8 17 -23 14 -38 -2 -20
-8 -24 -38 -24 -29 0 -36 4 -38 23 -7 49 23 68 62 39z m-429 -72 c0 -35 -28
-45 -59 -22 -28 20 -5 59 32 55 23 -2 27 -8 27 -33z m975 20 c17 -21 3 -57
-22 -53 -30 4 -45 32 -29 52 17 20 35 20 51 1z m-779 -26 c6 -13 6 -25 -1 -39
-21 -40 -87 -11 -76 34 10 39 57 42 77 5z m449 -15 c0 -8 -4 -12 -10 -9 -5 3
-10 10 -10 16 0 5 5 9 10 9 6 0 10 -7 10 -16z m-300 -38 c-13 -13 -35 7 -25
24 5 8 11 8 21 -1 10 -8 12 -15 4 -23z m1530 4 c0 -10 8 -21 18 -25 16 -7 15
-8 -3 -15 -15 -5 -22 -2 -27 12 -4 11 -12 16 -18 13 -5 -3 -10 -2 -10 4 0 5
-3 16 -6 24 -4 11 1 13 20 10 16 -4 26 -12 26 -23z m-1313 -2 c18 -14 16 -57
-2 -64 -25 -10 -63 5 -70 26 -8 25 -22 26 -28 3 -4 -17 -4 -17 -12 0 -4 9 -5
23 -2 30 6 15 96 20 114 5z m281 3 c23 -14 10 -46 -18 -46 -16 0 -26 6 -28 19
-3 16 12 36 28 36 3 0 11 -4 18 -9z m-774 -17 c9 -3 16 -15 16 -26 0 -15 -5
-18 -22 -13 -35 11 -45 24 -28 35 18 12 15 11 34 4z m985 -22 c20 -38 -31 -71
-59 -37 -6 8 -9 23 -5 35 8 25 51 27 64 2z m-777 -27 c9 -21 9 -29 -4 -41 -18
-18 -51 -7 -62 21 -17 46 45 65 66 20z m1671 8 c-7 -2 -19 -2 -25 0 -7 3 -2 5
12 5 14 0 19 -2 13 -5z m-1569 -9 c45 -17 38 -84 -9 -84 -32 0 -48 30 -35 64
10 27 17 30 44 20z m-2124 -32 c0 -8 3 -12 7 -9 15 15 32 -32 33 -88 0 -63
-26 -208 -39 -213 -4 -1 -6 -19 -4 -40 3 -35 2 -34 -18 18 -18 46 -22 80 -24
200 -1 80 0 148 2 152 6 12 43 -4 43 -20z m2478 1 c4 -29 -23 -31 -38 -4 -15
28 -13 33 13 29 14 -2 23 -11 25 -25z m525 7 c7 -28 -3 -60 -19 -60 -16 0 -34
31 -34 59 0 29 45 29 53 1z m-315 -48 c-2 -21 -9 -28 -30 -30 -45 -5 -63 61
-20 71 30 7 53 -12 50 -41z m-760 26 c7 -7 12 -16 12 -20 0 -15 -27 -8 -45 12
-18 19 -17 20 1 20 11 0 25 -5 32 -12z m1160 -4 c12 -8 26 -13 31 -10 5 3 11
-1 14 -9 4 -9 1 -12 -9 -8 -9 3 -14 -1 -15 -13 0 -18 -1 -17 -9 1 -5 11 -9 14
-9 8 -1 -18 -31 -16 -31 1 0 8 -3 21 -6 30 -8 20 5 20 34 0z m-1244 -26 c5 -9
7 -20 3 -25 -11 -10 -41 11 -45 31 -5 23 26 18 42 -6z m1801 2 c6 -20 0 -40
-13 -40 -18 1 -44 31 -39 45 9 22 44 19 52 -5z m-1271 4 c10 -4 16 -18 16 -36
0 -25 -4 -29 -22 -26 -23 3 -34 28 -24 54 6 16 8 16 30 8z m-636 -48 c3 -20 0
-27 -10 -24 -7 3 -14 17 -16 32 -3 20 0 27 10 24 7 -3 14 -17 16 -32z m472 14
c6 -11 16 -20 22 -20 18 0 48 -32 48 -51 0 -26 -46 -36 -69 -15 -10 9 -22 16
-28 16 -25 0 -33 27 -17 59 18 36 29 39 44 11z m354 -16 c20 -20 20 -43 0 -51
-21 -8 -59 30 -51 51 8 20 31 20 51 0z m573 -21 c-3 -10 -5 -4 -5 12 0 17 2
24 5 18 2 -7 2 -21 0 -30z m-1077 12 c0 -8 -4 -15 -9 -15 -5 0 -11 7 -15 15
-3 9 0 15 9 15 8 0 15 -7 15 -15z m-60 -27 c11 -21 12 -30 3 -39 -17 -17 -53
16 -53 48 0 33 29 27 50 -9z m768 10 c17 -17 15 -65 -3 -72 -22 -8 -46 4 -55
28 -16 42 27 75 58 44z m-860 -30 c21 -21 14 -48 -11 -48 -33 0 -62 23 -54 44
7 19 48 21 65 4z m565 -9 c16 -22 12 -55 -6 -62 -20 -8 -55 11 -62 33 -14 44
41 68 68 29z m387 -18 c14 -28 13 -41 -5 -41 -16 0 -36 39 -28 53 8 13 22 8
33 -12z m-752 -3 c28 -28 2 -88 -33 -74 -21 8 -29 31 -21 61 7 27 34 33 54 13z
m560 -42 c2 -10 -1 -23 -6 -28 -12 -12 -56 28 -46 43 10 16 48 6 52 -15z
m-842 -10 c8 -32 -2 -46 -31 -46 -31 0 -52 35 -34 56 19 23 58 18 65 -10z
m545 -45 c-7 -11 -19 -21 -29 -21 -23 1 -52 24 -52 41 0 11 2 11 10 -1 6 -9
10 -10 10 -3 0 6 7 19 16 28 16 15 18 15 36 -3 17 -16 18 -23 9 -41z m-333 37
c14 -14 16 -44 3 -52 -17 -11 -41 6 -41 28 0 35 16 46 38 24z m790 -21 c2 -10
-3 -17 -12 -17 -10 0 -16 9 -16 21 0 24 23 21 28 -4z m-264 0 c26 -19 18 -61
-12 -65 -42 -6 -69 37 -40 66 15 15 30 15 52 -1z m-377 -22 c15 -14 36 -32 46
-41 10 -8 17 -23 15 -32 -5 -25 -44 -26 -67 -3 -12 12 -30 21 -41 21 -14 0
-20 7 -20 24 0 60 23 71 67 31z m-219 -21 c30 -21 30 -48 0 -38 -31 9 -48 24
-48 40 0 18 20 18 48 -2z m794 -11 c22 -20 23 -39 3 -47 -21 -8 -43 3 -50 25
-12 38 15 51 47 22z m-312 -27 c6 -8 10 -25 8 -38 -6 -42 -78 -32 -78 11 0 37
46 55 70 27z m-333 -71 c3 -9 3 -19 -1 -22 -8 -9 -37 18 -30 28 8 14 24 11 31
-6z"/>
<path d="M3891 174 c0 -11 3 -14 6 -6 3 7 2 16 -1 19 -3 4 -6 -2 -5 -13z"/>
<path d="M1248 7483 c2 -109 5 -200 8 -202 15 -16 23 36 29 207 l7 192 -23 0
-24 0 3 -197z"/>
<path d="M5742 7200 c0 -14 2 -19 5 -12 2 6 2 18 0 25 -3 6 -5 1 -5 -13z"/>
<path d="M5720 5910 c0 -5 5 -10 10 -10 6 0 10 5 10 10 0 6 -4 10 -10 10 -5 0
-10 -4 -10 -10z"/>
<path d="M6490 5784 c-17 -10 -39 -13 -68 -9 -41 6 -43 5 -40 -17 3 -22 6 -23
83 -19 89 3 110 13 94 42 -11 22 -34 23 -69 3z"/>
<path d="M2498 4778 c-3 -7 1 -28 8 -47 7 -20 13 -62 14 -93 0 -62 27 -137 57
-159 20 -16 31 -36 66 -124 27 -68 92 -183 82 -145 -4 14 -15 37 -26 52 -36
52 -89 226 -89 294 0 20 -5 68 -11 107 -10 61 -16 76 -43 99 -34 30 -52 35
-58 16z"/>
<path d="M3477 4023 c-15 -15 -5 -22 41 -29 26 -3 52 -10 57 -14 6 -4 18 -10
28 -13 29 -11 2 30 -33 48 -30 15 -82 20 -93 8z"/>
<path d="M3700 3870 c0 -5 5 -10 10 -10 6 0 10 5 10 10 0 6 -4 10 -10 10 -5 0
-10 -4 -10 -10z"/>
<path d="M3665 3860 c-11 -17 5 -48 22 -46 19 3 31 26 14 26 -6 0 -11 7 -11
15 0 17 -16 20 -25 5z"/>
<path d="M3605 3500 c3 -5 12 -10 20 -10 8 0 17 5 20 10 4 6 -5 10 -20 10 -15
0 -24 -4 -20 -10z"/>
<path d="M2930 3371 c0 -33 9 -61 19 -61 10 0 0 79 -10 86 -5 3 -9 -8 -9 -25z"/>
<path d="M76 3338 c-2 -13 -12 -54 -21 -93 -10 -38 -19 -80 -22 -92 -6 -26 13
-31 40 -10 25 18 42 123 27 175 -12 48 -18 52 -24 20z"/>
<path d="M143 2640 c3 -13 -1 -21 -15 -26 -10 -3 -23 -17 -28 -30 -5 -13 -14
-24 -18 -24 -6 0 -6 -18 -1 -42 4 -24 8 -46 9 -50 0 -5 13 -8 28 -8 30 0 62
26 62 51 0 8 7 23 15 33 25 33 19 72 -14 95 -36 26 -45 26 -38 1z"/>
<path d="M2591 2574 c0 -11 3 -14 6 -6 3 7 2 16 -1 19 -3 4 -6 -2 -5 -13z"/>
<path d="M2010 2018 c0 -19 42 -159 70 -233 4 -11 20 -60 35 -110 15 -49 44
-144 65 -210 21 -66 46 -147 55 -180 24 -91 65 -216 81 -250 7 -16 15 -64 16
-105 l3 -75 9 60 c10 66 6 89 -42 250 -16 55 -39 143 -52 195 -32 134 -116
408 -151 492 -16 39 -29 76 -29 83 0 6 -9 22 -20 35 -11 13 -20 31 -20 41 0
10 -4 21 -10 24 -6 3 -10 -4 -10 -17z"/>
<path d="M4686 1922 c-7 -31 -9 -32 -22 -15 -13 16 -14 11 -8 -42 4 -33 17
-105 29 -159 21 -92 21 -103 8 -155 -8 -30 -21 -68 -29 -83 -8 -15 -14 -29
-14 -30 1 -2 -2 -11 -5 -20 -11 -29 -1 -43 18 -24 9 10 21 15 25 12 11 -7 43
28 62 68 22 43 17 199 -9 326 -12 57 -27 107 -33 111 -5 3 -9 9 -8 13 1 4 0
12 -3 19 -2 6 -7 -3 -11 -21z m3 -95 c0 -21 -1 -21 -9 -2 -12 28 -12 37 0 30
6 -3 10 -16 9 -28z"/>
<path d="M2610 1916 c0 -8 5 -18 10 -21 6 -3 10 1 10 9 0 8 -4 18 -10 21 -5 3
-10 -1 -10 -9z"/>
<path d="M2650 1826 c4 -12 17 -39 28 -61 11 -22 41 -88 66 -147 50 -119 56
-130 106 -202 81 -117 96 -135 108 -136 6 0 12 -10 12 -22 0 -16 3 -19 11 -11
7 7 7 17 1 29 -6 11 -23 53 -39 94 -19 48 -37 79 -51 86 -39 19 -62 46 -62 73
-1 59 -29 142 -62 183 -19 24 -43 58 -54 76 -10 17 -24 32 -31 32 -7 0 -13 6
-13 13 0 8 -6 14 -14 14 -10 0 -12 -6 -6 -21z"/>
<path d="M4488 1777 c-12 -39 -17 -99 -20 -242 -3 -182 -2 -190 16 -190 14 0
28 16 45 51 14 28 31 58 37 65 6 8 17 30 24 49 7 19 20 43 29 53 24 28 19 106
-9 153 -27 42 -88 114 -99 114 -3 0 -14 -24 -23 -53z"/>
<path d="M3855 1451 c-7 -13 24 -43 37 -35 7 5 5 11 -5 19 -9 7 -14 15 -10 18
3 4 1 7 -5 7 -6 0 -13 -4 -17 -9z"/>
<path d="M4422 1415 c0 -16 2 -22 5 -12 2 9 2 23 0 30 -3 6 -5 -1 -5 -18z"/>
<path d="M1435 1410 c-4 -6 -11 -7 -17 -4 -8 5 -9 -10 -5 -50 6 -60 138 -474
189 -591 43 -100 107 -286 108 -313 0 -12 32 -119 71 -237 l71 -215 218 0
c241 0 230 -3 230 67 0 46 21 165 31 177 10 12 221 -22 292 -47 40 -14 62 -28
70 -44 5 -13 17 -23 24 -23 8 0 12 -3 10 -8 -3 -4 9 -7 26 -7 54 -1 213 -24
340 -50 67 -14 160 -29 207 -34 47 -5 98 -14 113 -20 41 -16 77 -14 77 4 0 8
-5 15 -11 15 -5 0 -7 4 -4 10 7 12 -9 15 -170 35 -71 9 -170 25 -220 35 -49
11 -137 26 -195 35 -135 19 -177 31 -185 54 -9 30 -70 50 -228 76 -83 14 -159
25 -168 25 -19 0 -22 -7 -39 -93 -10 -48 -14 -56 -26 -46 -17 14 -18 107 -4
214 13 98 21 172 16 160 -3 -5 -16 -48 -30 -95 -46 -151 -60 -190 -67 -190 -4
0 -10 -13 -14 -28 -5 -25 -29 -50 -72 -75 -14 -9 -9 39 13 118 7 28 21 97 30
155 9 58 32 150 51 205 29 83 36 121 43 220 7 121 22 170 47 160 18 -6 16 6
-3 20 -9 6 -29 9 -45 7 -29 -4 -37 -16 -19 -27 19 -12 10 -44 -20 -75 -27 -27
-32 -41 -36 -98 -5 -67 -60 -308 -74 -327 -4 -5 -10 -21 -12 -35 -27 -132 -52
-227 -60 -235 -8 -7 -9 -6 -4 3 4 7 1 12 -8 12 -9 0 -16 -8 -16 -17 0 -15 -2
-16 -10 -3 -7 11 -10 11 -10 2 0 -7 -4 -11 -9 -8 -5 4 -11 1 -13 -5 -5 -14
-41 18 -62 56 -9 17 -30 51 -46 77 -45 73 -76 189 -99 364 -25 192 -23 184
-77 291 -24 47 -44 92 -44 100 0 7 -4 13 -9 13 -10 0 -93 177 -117 249 -17 54
-19 57 -29 41z"/>
<path d="M4415 1369 c-10 -15 3 -25 16 -12 7 7 7 13 1 17 -6 3 -14 1 -17 -5z"/>
<path d="M4970 1266 c0 -8 5 -18 10 -21 6 -3 10 3 10 14 0 12 -4 21 -10 21 -5
0 -10 -6 -10 -14z"/>
<path d="M7012 1108 c2 -25 8 -34 26 -36 27 -4 29 17 3 46 -25 30 -33 27 -29
-10z"/>
<path d="M1031 1088 c-104 -7 -171 -16 -210 -29 -38 -13 -45 -17 -21 -13 144
22 399 32 505 19 108 -13 125 -32 109 -114 -5 -24 -12 -31 -30 -31 -12 0 -26
-5 -29 -11 -4 -6 -1 -10 6 -8 28 3 39 -1 39 -18 0 -24 14 -6 18 24 1 14 9 44
17 66 12 34 12 43 -1 62 -21 32 -50 42 -140 50 -43 4 -86 8 -94 9 -8 2 -84 -1
-169 -6z"/>
<path d="M5225 1015 c2 -33 7 -159 11 -280 5 -176 3 -243 -10 -335 -9 -63 -16
-141 -16 -175 0 -90 -7 -108 -39 -102 -28 6 -60 -7 -49 -19 4 -4 4 -14 -1 -23
-4 -9 -11 -31 -14 -48 l-6 -33 99 0 c95 0 100 1 104 22 2 13 9 106 15 208 13
214 26 303 52 345 10 17 22 48 27 70 5 22 13 48 17 59 18 42 -18 8 -47 -44
-16 -30 -40 -66 -53 -79 -22 -23 -25 -23 -31 -7 -4 11 3 57 15 105 24 95 26
118 11 123 -5 2 -16 39 -23 83 -9 49 -19 79 -26 78 -6 -2 -11 0 -11 5 -1 4 -7
30 -16 57 l-14 50 5 -60z"/>
<path d="M7250 1040 c0 -5 10 -10 23 -10 18 0 19 2 7 10 -19 13 -30 13 -30 0z"/>
<path d="M710 1023 c-30 -15 -82 -54 -55 -42 6 3 31 15 58 27 26 12 47 24 47
27 0 9 -13 5 -50 -12z"/>
<path d="M945 1030 c3 -5 13 -10 21 -10 8 0 12 5 9 10 -3 6 -13 10 -21 10 -8
0 -12 -4 -9 -10z"/>
<path d="M1020 1032 c0 -4 16 -9 36 -10 23 -2 33 1 29 8 -7 12 -65 14 -65 2z"/>
<path d="M1115 1031 c-3 -5 23 -11 57 -13 35 -2 71 -8 81 -12 10 -5 17 -4 17
2 0 5 -8 13 -17 17 -28 11 -132 15 -138 6z"/>
<path d="M1300 1010 c0 -6 7 -10 15 -10 8 0 15 2 15 4 0 2 -7 6 -15 10 -8 3
-15 1 -15 -4z"/>
<path d="M850 1004 c0 -13 56 -74 69 -74 8 0 0 16 -20 39 -31 36 -49 49 -49
35z"/>
<path d="M1110 995 c0 -11 -8 -13 -32 -8 -41 8 -31 -8 22 -36 43 -22 90 -28
90 -11 0 6 -13 10 -29 10 -36 0 -48 15 -24 29 16 9 16 12 3 21 -21 14 -30 12
-30 -5z"/>
<path d="M7032 990 c0 -14 2 -19 5 -12 2 6 2 18 0 25 -3 6 -5 1 -5 -13z"/>
<path d="M940 990 c0 -5 7 -10 16 -10 8 0 12 5 9 10 -3 6 -10 10 -16 10 -5 0
-9 -4 -9 -10z"/>
<path d="M1200 990 c0 -12 28 -39 41 -40 4 0 9 9 12 20 3 13 0 20 -8 20 -7 0
-20 3 -29 6 -9 4 -16 1 -16 -6z"/>
<path d="M1343 988 c2 -7 10 -13 17 -13 7 0 15 6 18 13 2 7 -5 12 -18 12 -13
0 -20 -5 -17 -12z"/>
<path d="M6750 976 c0 -9 5 -16 10 -16 6 0 10 4 10 9 0 6 -4 13 -10 16 -5 3
-10 -1 -10 -9z"/>
<path d="M1010 970 c0 -9 5 -21 12 -28 15 -15 48 -16 48 -2 0 6 -9 10 -20 10
-10 0 -24 8 -29 18 -9 14 -10 14 -11 2z"/>
<path d="M730 936 c0 -8 9 -20 21 -26 19 -11 20 -10 10 9 -15 27 -31 36 -31
17z"/>
<path d="M940 940 c0 -5 11 -10 25 -10 14 0 25 5 25 10 0 6 -11 10 -25 10 -14
0 -25 -4 -25 -10z"/>
<path d="M6998 943 c-27 -4 -40 -23 -17 -23 6 0 9 -6 6 -14 -3 -8 -3 -17 1
-21 4 -4 8 -21 9 -38 6 -94 16 -147 29 -147 8 0 13 3 13 8 -5 29 5 57 28 78
26 24 27 26 11 57 -21 42 -28 76 -17 83 5 3 9 9 9 15 0 9 -21 10 -72 2z"/>
<path d="M1240 929 c0 -5 9 -9 20 -9 11 0 20 2 20 4 0 2 -9 6 -20 9 -11 3 -20
1 -20 -4z"/>
<path d="M4896 908 c-2 -7 -9 -49 -15 -92 -11 -74 -10 -81 9 -101 11 -12 20
-27 20 -33 0 -7 11 -17 23 -21 27 -10 124 -17 131 -10 8 7 -55 173 -68 181 -6
4 -23 8 -37 8 -27 0 -39 16 -39 50 0 23 -19 37 -24 18z"/>
<path d="M550 890 c0 -5 5 -10 10 -10 6 0 10 5 10 10 0 6 -4 10 -10 10 -5 0
-10 -4 -10 -10z"/>
<path d="M975 890 c3 -5 11 -10 16 -10 6 0 7 5 4 10 -3 6 -11 10 -16 10 -6 0
-7 -4 -4 -10z"/>
<path d="M1055 890 c3 -5 13 -10 21 -10 8 0 12 5 9 10 -3 6 -13 10 -21 10 -8
0 -12 -4 -9 -10z"/>
<path d="M660 876 c0 -8 5 -18 10 -21 6 -3 10 1 10 9 0 8 -4 18 -10 21 -5 3
-10 -1 -10 -9z"/>
<path d="M1140 878 c0 -7 -3 -23 -6 -34 -4 -15 0 -23 13 -28 10 -3 24 -9 31
-12 10 -5 10 1 -2 24 -9 17 -16 38 -16 47 0 8 -4 15 -10 15 -5 0 -10 -6 -10
-12z"/>
<path d="M1225 880 c3 -5 15 -10 26 -10 11 0 17 5 14 10 -3 6 -15 10 -26 10
-11 0 -17 -4 -14 -10z"/>
<path d="M880 864 c0 -5 9 -22 20 -39 17 -26 20 -27 20 -9 0 11 -9 29 -20 39
-11 10 -20 14 -20 9z"/>
<path d="M1040 860 c0 -5 5 -10 10 -10 6 0 19 -9 31 -21 11 -11 23 -18 26 -15
7 7 -44 56 -58 56 -5 0 -9 -4 -9 -10z"/>
<path d="M620 845 c14 -7 27 -11 30 -9 6 7 -22 24 -40 23 -9 0 -5 -6 10 -14z"/>
<path d="M800 850 c0 -5 5 -10 11 -10 5 0 7 5 4 10 -3 6 -8 10 -11 10 -2 0 -4
-4 -4 -10z"/>
<path d="M950 830 c12 -17 25 -28 30 -25 5 3 -2 17 -16 30 -34 34 -40 31 -14
-5z"/>
<path d="M1220 845 c0 -8 9 -16 19 -20 11 -3 22 -12 25 -20 3 -8 10 -15 16
-15 6 0 4 7 -4 16 -9 8 -16 21 -16 29 0 7 -9 15 -20 18 -13 3 -20 0 -20 -8z"/>
<path d="M6900 843 c0 -10 5 -25 10 -33 9 -13 11 -13 20 0 14 21 8 44 -13 48
-11 2 -17 -3 -17 -15z"/>
<path d="M1387 843 c-10 -17 -11 -86 -2 -90 6 -2 10 18 10 47 0 52 -1 55 -8
43z"/>
<path d="M862 820 c0 -14 2 -19 5 -12 2 6 2 18 0 25 -3 6 -5 1 -5 -13z"/>
<path d="M1030 820 c8 -5 24 -9 35 -9 l20 0 -20 9 c-11 5 -27 9 -35 9 -13 1
-13 0 0 -9z"/>
<path d="M785 810 c3 -5 10 -10 16 -10 5 0 9 5 9 10 0 6 -7 10 -16 10 -8 0
-12 -4 -9 -10z"/>
<path d="M670 790 c0 -5 9 -10 20 -10 11 0 20 5 20 10 0 6 -9 10 -20 10 -11 0
-20 -4 -20 -10z"/>
<path d="M3414 758 c3 -13 6 -28 6 -34 0 -5 9 -20 20 -32 11 -12 25 -33 30
-47 10 -27 76 -72 97 -67 7 2 13 -4 13 -13 0 -8 5 -15 10 -15 19 0 10 49 -10
60 -11 6 -20 17 -20 24 0 8 -6 16 -14 19 -8 3 -22 22 -31 42 -31 64 -116 117
-101 63z"/>
<path d="M660 756 c0 -9 5 -16 10 -16 6 0 10 4 10 9 0 6 -4 13 -10 16 -5 3
-10 -1 -10 -9z"/>
<path d="M860 747 c-92 -25 -143 -48 -122 -55 7 -2 23 3 36 11 23 16 95 33
196 47 68 10 267 3 338 -11 55 -11 74 -7 55 12 -8 8 -83 13 -215 15 -186 3
-210 2 -288 -19z"/>
<path d="M580 733 c0 -6 9 -22 20 -36 11 -14 20 -36 20 -49 0 -13 24 -66 54
-118 30 -52 57 -113 62 -135 4 -22 17 -62 30 -90 13 -27 37 -96 52 -152 28
-98 28 -102 11 -125 l-18 -23 -35 34 c-19 19 -33 38 -30 43 3 4 -2 11 -10 14
-9 3 -16 12 -16 19 0 17 -54 38 -79 30 -22 -7 -27 -18 -36 -92 l-7 -52 449 0
c340 0 443 2 428 11 -10 6 -70 13 -133 14 -174 4 -194 29 -127 160 19 37 35
79 35 92 0 14 9 43 19 66 31 67 85 300 71 304 -9 3 -9 7 1 13 12 8 12 11 -1
18 -22 15 -27 6 -32 -63 -4 -44 -14 -80 -32 -112 -14 -25 -26 -55 -26 -64 0
-10 -3 -20 -7 -22 -12 -5 -53 -85 -53 -103 0 -9 -13 -43 -29 -75 -16 -32 -27
-61 -23 -64 3 -3 -2 -6 -12 -6 -9 0 -15 -4 -11 -9 3 -6 -4 -9 -16 -8 -21 1
-21 1 -1 15 17 11 20 21 16 65 -3 29 -6 72 -7 97 -2 37 -6 45 -21 45 -17 0
-19 -8 -17 -88 2 -80 1 -88 -15 -85 -10 2 -26 18 -37 36 -19 32 -19 32 2 75
26 53 26 57 1 57 -13 0 -22 -9 -26 -25 -7 -30 -24 -32 -47 -5 -16 20 -47 28
-47 12 0 -4 11 -24 25 -45 28 -40 26 -51 -17 -106 -10 -14 -16 -32 -13 -43 7
-21 -8 -24 -22 -5 -6 6 -20 41 -32 77 -12 36 -30 76 -40 90 -10 14 -24 43 -30
65 -17 54 -61 143 -90 183 -13 18 -24 46 -25 63 -1 21 -13 44 -38 72 -21 22
-38 36 -38 30z m464 -569 c28 5 29 4 13 -8 -14 -11 -26 -12 -55 -3 -20 6 -38
12 -40 13 -2 1 0 14 4 29 l7 27 20 -32 c17 -28 24 -31 51 -26z m-197 -146 c-3
-8 -6 -5 -6 6 -1 11 2 17 5 13 3 -3 4 -12 1 -19z"/>
<path d="M6918 710 c-12 -39 -10 -76 3 -63 6 6 9 28 7 49 -3 35 -4 36 -10 14z"/>
<path d="M685 680 c-8 -13 5 -13 25 0 13 8 13 10 -2 10 -9 0 -20 -4 -23 -10z"/>
<path d="M1087 678 l-28 -10 20 -22 c26 -28 42 -173 20 -187 -12 -8 -12 -11 1
-19 8 -5 22 -7 30 -4 8 4 31 10 50 13 19 3 34 10 33 14 -2 4 -3 18 -3 32 0 31
-17 33 -22 3 -2 -15 -10 -23 -23 -23 -23 0 -32 34 -39 139 -3 37 -6 69 -8 71
-2 1 -16 -2 -31 -7z"/>
<path d="M920 657 c0 -2 6 -17 14 -33 8 -16 17 -64 20 -107 l7 -78 -28 3 c-22
2 -29 10 -34 35 -3 18 -13 40 -20 50 -11 13 -11 17 -1 20 17 6 15 59 -4 77
-13 13 -94 24 -94 13 0 -2 7 -18 16 -36 12 -24 15 -54 13 -117 l-4 -84 33 0
c32 0 40 8 23 25 -5 6 -12 29 -16 53 -6 36 -4 41 9 36 9 -3 16 -17 16 -29 0
-36 18 -75 34 -75 8 0 39 5 67 11 43 9 50 14 37 23 -8 6 -17 26 -20 45 -4 30
-2 35 24 45 46 17 55 91 14 118 -11 8 -106 11 -106 5z m98 -56 c4 -44 -14 -63
-34 -37 -8 11 -14 33 -14 49 0 24 4 28 23 25 17 -2 23 -11 25 -37z m-158 -2
c7 -11 9 -27 6 -35 -8 -21 -36 -17 -36 5 0 11 -3 26 -6 35 -9 24 23 20 36 -5z"/>
<path d="M3601 634 c0 -11 3 -14 6 -6 3 7 2 16 -1 19 -3 4 -6 -2 -5 -13z"/>
<path d="M4827 554 c-20 -20 -6 -52 31 -69 20 -10 48 -26 61 -36 24 -20 81
-26 81 -10 0 5 -12 12 -27 16 -41 9 -123 62 -131 86 -4 11 -11 17 -15 13z"/>
<path d="M3620 539 c0 -5 5 -7 10 -4 6 3 10 8 10 11 0 2 -4 4 -10 4 -5 0 -10
-5 -10 -11z"/>
<path d="M5073 443 c9 -2 25 -2 35 0 9 3 1 5 -18 5 -19 0 -27 -2 -17 -5z"/>
<path d="M4771 339 c-6 -27 -11 -58 -11 -67 1 -26 23 -50 55 -58 26 -6 28 -5
20 17 -4 13 -10 50 -12 82 -4 42 -10 60 -23 67 -16 9 -20 4 -29 -41z"/>
<path d="M1 148 l-1 -148 26 0 c21 0 25 3 19 18 -15 34 -24 98 -25 167 -1 39
-5 79 -10 90 -5 12 -9 -36 -9 -127z"/>
<path d="M4524 266 c-11 -11 -23 -29 -27 -38 -4 -12 -12 -15 -24 -11 -15 6
-16 4 -6 -8 13 -16 25 -104 15 -114 -3 -3 -7 -26 -10 -50 -3 -44 -3 -45 27
-45 26 0 31 4 30 23 -1 12 8 64 20 114 33 145 26 182 -25 129z"/>
<path d="M2427 158 c-46 -110 -51 -130 -36 -138 10 -7 16 -3 21 11 8 21 28 17
28 -6 0 -17 22 -25 70 -25 38 0 46 4 75 45 14 19 14 18 9 -12 -5 -26 -3 -33
10 -33 9 0 16 6 16 14 0 8 5 18 12 22 7 5 9 0 6 -14 -5 -19 -2 -21 28 -20 21
1 35 7 37 17 4 13 5 13 6 -1 1 -15 11 -18 67 -18 41 0 63 4 59 10 -3 5 1 10 9
10 8 0 18 -4 21 -10 9 -14 55 -12 55 2 0 9 3 9 12 0 14 -14 38 -16 38 -3 0 5
-9 19 -19 32 l-19 24 -24 -22 c-23 -21 -24 -22 -35 -4 -6 10 -24 21 -40 24
-15 3 -36 9 -45 12 -14 6 -18 2 -19 -16 0 -23 -1 -23 -9 -4 -4 12 -15 27 -24
34 -13 11 -16 11 -20 0 -2 -8 -7 -21 -9 -29 -3 -8 -6 2 -6 22 -1 37 -33 74
-54 61 -5 -3 -13 0 -17 7 -10 16 -31 4 -24 -15 3 -7 1 -22 -5 -32 -6 -11 -11
-13 -12 -5 -1 6 -3 17 -4 22 -1 6 -3 17 -4 25 -1 17 -42 37 -53 26 -4 -4 -14
-35 -21 -71 -17 -85 -33 -88 -36 -8 -3 103 -19 127 -44 66z m133 -61 c0 -35
-14 -65 -23 -50 -9 14 4 93 14 87 5 -3 9 -20 9 -37z"/>
<path d="M5487 68 c-11 -40 -8 -68 8 -68 10 0 15 10 15 33 0 44 -15 67 -23 35z"/>
<path d="M2997 33 c-13 -12 -7 -33 8 -33 8 0 15 9 15 20 0 20 -11 26 -23 13z"/>
<path d="M3133 3 c9 -2 23 -2 30 0 6 3 -1 5 -18 5 -16 0 -22 -2 -12 -5z"/>
</g>
</svg>
